<svg xmlns="http://www.w3.org/2000/svg" viewBox="0 0 32.89 41.13"><defs><style>.cls-1{fill:#231815;}</style></defs><g id="レイヤー_2" data-name="レイヤー 2"><g id="レイヤー_1-2" data-name="レイヤー 1"><polygon class="cls-1" points="5.91 30.57 0.2 30.46 0 41.13 2.95 35.85 5.91 30.57"/><polygon class="cls-1" points="22.09 0 1.05 0.44 1.69 30.46 11.89 15.23 22.09 0"/><path class="cls-1" d="M29.87,38.86a13.18,13.18,0,0,1-7,1.82c-5.83,0-8-4.45-8-9,0-6.9,5.2-15.09,12.05-15.09,4.2,0,6,2.6,6,5.28,0,6.18-7.52,7.43-15.59,7.32a12.56,12.56,0,0,0,.3,5.65,5.56,5.56,0,0,0,5.58,3.94,11.6,11.6,0,0,0,6.05-1.66ZM26.53,18.49c-4.16,0-7.64,4.34-8.92,8.88,6.8.09,13.06-.8,13.06-5.33C30.67,19.68,28.91,18.49,26.53,18.49Z" transform="translate(0 -9.5)"/></g></g></svg>